name rise34.3697peak60.0498fall86.3158.mot
datacolumns 19
datarows 33
range 7.94663600000000 7.99996800000000
endheader
time	ground_force1_vx	ground_force1_vy	ground_force1_vz	ground_force1_px	ground_force1_py	ground_force1_pz	ground_force2_vx	ground_force2_vy	ground_force2_vz	ground_force2_px	ground_force2_py	ground_force2_pz	ground_torque1_x	ground_torque1_y	ground_torque1_z	ground_torque2_x	ground_torque2_y	ground_torque2_z	
7.94663600000000	55.78455900000000	764.67997300000002	55.84141800000000	0.43608000000000	0.00000000000000	0.11892700000000	0.00000000000000	0.00000000000000	0.00000000000000	0.00000000000000	0.00000000000000	0.00000000000000	0.00000000000000	33.94366100000000	0.00000000000000	0.00000000000000	0.00000000000000	0.00000000000000	
7.94831200000000	55.18125100000000	767.80643499999996	56.11894700000000	0.43425900000000	0.00000000000000	0.11907500000000	0.00000000000000	0.00000000000000	0.00000000000000	0.00000000000000	0.00000000000000	0.00000000000000	0.00000000000000	34.11033500000000	0.00000000000000	0.00000000000000	0.00000000000000	0.00000000000000	
7.94996600000000	54.58232600000000	770.81624999999997	56.39226200000000	0.43245400000000	0.00000000000000	0.11922600000000	0.00000000000000	0.00000000000000	0.00000000000000	0.00000000000000	0.00000000000000	0.00000000000000	0.00000000000000	34.27357000000000	0.00000000000000	0.00000000000000	0.00000000000000	0.00000000000000	
7.95163500000000	53.98833600000000	773.70639100000005	56.66088600000000	0.43066800000000	0.00000000000000	0.11937800000000	0.00000000000000	0.00000000000000	0.00000000000000	0.00000000000000	0.00000000000000	0.00000000000000	0.00000000000000	34.43310400000000	0.00000000000000	0.00000000000000	0.00000000000000	0.00000000000000	
7.95330700000000	53.39975900000000	776.47387500000002	56.92430500000000	0.42890400000000	0.00000000000000	0.11953200000000	0.00000000000000	0.00000000000000	0.00000000000000	0.00000000000000	0.00000000000000	0.00000000000000	0.00000000000000	34.58865000000000	0.00000000000000	0.00000000000000	0.00000000000000	0.00000000000000	
7.95497400000000	52.81699900000000	779.11578199999997	57.18196700000000	0.42716200000000	0.00000000000000	0.11968800000000	0.00000000000000	0.00000000000000	0.00000000000000	0.00000000000000	0.00000000000000	0.00000000000000	0.00000000000000	34.73989900000000	0.00000000000000	0.00000000000000	0.00000000000000	0.00000000000000	
7.95663200000000	52.24039000000000	781.62927400000001	57.43329200000000	0.42544600000000	0.00000000000000	0.11984500000000	0.00000000000000	0.00000000000000	0.00000000000000	0.00000000000000	0.00000000000000	0.00000000000000	0.00000000000000	34.88652400000000	0.00000000000000	0.00000000000000	0.00000000000000	0.00000000000000	
7.95829900000000	51.67019400000000	784.01161600000000	57.67767300000000	0.42375700000000	0.00000000000000	0.12000200000000	0.00000000000000	0.00000000000000	0.00000000000000	0.00000000000000	0.00000000000000	0.00000000000000	0.00000000000000	35.02818200000000	0.00000000000000	0.00000000000000	0.00000000000000	0.00000000000000	
7.95996900000000	51.10661100000000	786.26019499999995	57.91448100000000	0.42209600000000	0.00000000000000	0.12016000000000	0.00000000000000	0.00000000000000	0.00000000000000	0.00000000000000	0.00000000000000	0.00000000000000	0.00000000000000	35.16451700000000	0.00000000000000	0.00000000000000	0.00000000000000	0.00000000000000	
7.96164100000000	50.54977600000000	788.37254099999996	58.14307200000000	0.42046600000000	0.00000000000000	0.12031900000000	0.00000000000000	0.00000000000000	0.00000000000000	0.00000000000000	0.00000000000000	0.00000000000000	0.00000000000000	35.29516400000000	0.00000000000000	0.00000000000000	0.00000000000000	0.00000000000000	
7.96330800000000	49.99976200000000	790.34634300000005	58.36278900000000	0.41886700000000	0.00000000000000	0.12047800000000	0.00000000000000	0.00000000000000	0.00000000000000	0.00000000000000	0.00000000000000	0.00000000000000	0.00000000000000	35.41975100000000	0.00000000000000	0.00000000000000	0.00000000000000	0.00000000000000	
7.96497300000000	49.45658800000000	792.17946700000005	58.57297200000000	0.41730000000000	0.00000000000000	0.12063700000000	0.00000000000000	0.00000000000000	0.00000000000000	0.00000000000000	0.00000000000000	0.00000000000000	0.00000000000000	35.53790500000000	0.00000000000000	0.00000000000000	0.00000000000000	0.00000000000000	
7.96663600000000	48.92021800000000	793.86997299999996	58.77295700000000	0.41576800000000	0.00000000000000	0.12079600000000	0.00000000000000	0.00000000000000	0.00000000000000	0.00000000000000	0.00000000000000	0.00000000000000	0.00000000000000	35.64925000000000	0.00000000000000	0.00000000000000	0.00000000000000	0.00000000000000	
7.96830300000000	48.39056800000000	795.41613500000005	58.96208900000000	0.41427000000000	0.00000000000000	0.12095500000000	0.00000000000000	0.00000000000000	0.00000000000000	0.00000000000000	0.00000000000000	0.00000000000000	0.00000000000000	35.75341600000000	0.00000000000000	0.00000000000000	0.00000000000000	0.00000000000000	
7.96996600000000	47.86750600000000	796.81644800000004	59.13971800000000	0.41280700000000	0.00000000000000	0.12111300000000	0.00000000000000	0.00000000000000	0.00000000000000	0.00000000000000	0.00000000000000	0.00000000000000	0.00000000000000	35.85003900000000	0.00000000000000	0.00000000000000	0.00000000000000	0.00000000000000	
7.97163400000000	47.35085900000000	798.06964800000003	59.30521200000000	0.41138200000000	0.00000000000000	0.12127000000000	0.00000000000000	0.00000000000000	0.00000000000000	0.00000000000000	0.00000000000000	0.00000000000000	0.00000000000000	35.93876500000000	0.00000000000000	0.00000000000000	0.00000000000000	0.00000000000000	
7.97330000000000	46.84041400000000	799.17472299999997	59.45795800000000	0.40999300000000	0.00000000000000	0.12142600000000	0.00000000000000	0.00000000000000	0.00000000000000	0.00000000000000	0.00000000000000	0.00000000000000	0.00000000000000	36.01925100000000	0.00000000000000	0.00000000000000	0.00000000000000	0.00000000000000	
7.97496600000000	46.33592400000000	800.13092400000005	59.59736700000000	0.40864100000000	0.00000000000000	0.12158200000000	0.00000000000000	0.00000000000000	0.00000000000000	0.00000000000000	0.00000000000000	0.00000000000000	0.00000000000000	36.09117100000000	0.00000000000000	0.00000000000000	0.00000000000000	0.00000000000000	
7.97663300000000	45.83711300000000	800.93777499999999	59.72288200000000	0.40732700000000	0.00000000000000	0.12173500000000	0.00000000000000	0.00000000000000	0.00000000000000	0.00000000000000	0.00000000000000	0.00000000000000	0.00000000000000	36.15421500000000	0.00000000000000	0.00000000000000	0.00000000000000	0.00000000000000	
7.97830700000000	45.34367400000000	801.59508200000005	59.83397600000000	0.40605100000000	0.00000000000000	0.12188800000000	0.00000000000000	0.00000000000000	0.00000000000000	0.00000000000000	0.00000000000000	0.00000000000000	0.00000000000000	36.20809600000000	0.00000000000000	0.00000000000000	0.00000000000000	0.00000000000000	
7.97996600000000	44.85528100000000	802.10293899999999	59.93016300000000	0.40481300000000	0.00000000000000	0.12203900000000	0.00000000000000	0.00000000000000	0.00000000000000	0.00000000000000	0.00000000000000	0.00000000000000	0.00000000000000	36.25254800000000	0.00000000000000	0.00000000000000	0.00000000000000	0.00000000000000	
7.98163700000000	44.37158600000000	802.46173699999997	60.01099900000000	0.40361400000000	0.00000000000000	0.12218800000000	0.00000000000000	0.00000000000000	0.00000000000000	0.00000000000000	0.00000000000000	0.00000000000000	0.00000000000000	36.28733100000000	0.00000000000000	0.00000000000000	0.00000000000000	0.00000000000000	
7.98330700000000	43.89222700000000	802.67216499999995	60.07608500000000	0.40245200000000	0.00000000000000	0.12233500000000	0.00000000000000	0.00000000000000	0.00000000000000	0.00000000000000	0.00000000000000	0.00000000000000	0.00000000000000	36.31223100000000	0.00000000000000	0.00000000000000	0.00000000000000	0.00000000000000	
7.98497300000000	43.41682700000000	802.73521500000004	60.12506900000000	0.40132700000000	0.00000000000000	0.12248000000000	0.00000000000000	0.00000000000000	0.00000000000000	0.00000000000000	0.00000000000000	0.00000000000000	0.00000000000000	36.32706400000000	0.00000000000000	0.00000000000000	0.00000000000000	0.00000000000000	
7.98663700000000	42.94500400000000	802.65218300000004	60.15765600000000	0.40024000000000	0.00000000000000	0.12262300000000	0.00000000000000	0.00000000000000	0.00000000000000	0.00000000000000	0.00000000000000	0.00000000000000	0.00000000000000	36.33167600000000	0.00000000000000	0.00000000000000	0.00000000000000	0.00000000000000	
7.98830300000000	42.47637000000000	802.42466800000000	60.17360200000000	0.39919000000000	0.00000000000000	0.12276400000000	0.00000000000000	0.00000000000000	0.00000000000000	0.00000000000000	0.00000000000000	0.00000000000000	0.00000000000000	36.32594500000000	0.00000000000000	0.00000000000000	0.00000000000000	0.00000000000000	
7.98996500000000	42.01053300000000	802.05457400000000	60.17272100000000	0.39817500000000	0.00000000000000	0.12290200000000	0.00000000000000	0.00000000000000	0.00000000000000	0.00000000000000	0.00000000000000	0.00000000000000	0.00000000000000	36.30978200000000	0.00000000000000	0.00000000000000	0.00000000000000	0.00000000000000	
7.99163300000000	41.54710600000000	801.54410299999995	60.15488700000000	0.39719600000000	0.00000000000000	0.12303800000000	0.00000000000000	0.00000000000000	0.00000000000000	0.00000000000000	0.00000000000000	0.00000000000000	0.00000000000000	36.28313200000000	0.00000000000000	0.00000000000000	0.00000000000000	0.00000000000000	
7.99330500000000	41.08570200000000	800.89575400000001	60.12003300000000	0.39625200000000	0.00000000000000	0.12317200000000	0.00000000000000	0.00000000000000	0.00000000000000	0.00000000000000	0.00000000000000	0.00000000000000	0.00000000000000	36.24597500000000	0.00000000000000	0.00000000000000	0.00000000000000	0.00000000000000	
7.99496800000000	40.62594700000000	800.11231499999997	60.06815600000000	0.39534100000000	0.00000000000000	0.12330300000000	0.00000000000000	0.00000000000000	0.00000000000000	0.00000000000000	0.00000000000000	0.00000000000000	0.00000000000000	36.19832600000000	0.00000000000000	0.00000000000000	0.00000000000000	0.00000000000000	
7.99663900000000	40.16747200000000	799.19685900000002	59.99931400000000	0.39446300000000	0.00000000000000	0.12343200000000	0.00000000000000	0.00000000000000	0.00000000000000	0.00000000000000	0.00000000000000	0.00000000000000	0.00000000000000	36.14023400000000	0.00000000000000	0.00000000000000	0.00000000000000	0.00000000000000	
7.99830700000000	39.70992300000000	798.15273300000001	59.91362700000000	0.39361700000000	0.00000000000000	0.12355800000000	0.00000000000000	0.00000000000000	0.00000000000000	0.00000000000000	0.00000000000000	0.00000000000000	0.00000000000000	36.07178700000000	0.00000000000000	0.00000000000000	0.00000000000000	0.00000000000000	
7.99996800000000	39.25296200000000	796.98355100000003	59.81127900000000	0.39280100000000	0.00000000000000	0.12368100000000	0.00000000000000	0.00000000000000	0.00000000000000	0.00000000000000	0.00000000000000	0.00000000000000	0.00000000000000	35.99310500000000	0.00000000000000	0.00000000000000	0.00000000000000	0.00000000000000	
